<svg class="w-full h-full" viewBox="0 0 1181 36" fill="none" xmlns="http://www.w3.org/2000/svg"> <path d="M2.45081 29.1843H23.8258V7.80933H2.45081V29.1843ZM19.7117 16.4402H15.195V11.9235H19.7117V16.4402ZM6.56414 11.9235H11.0833V20.5535H19.7117V25.0702H6.56414V11.9235ZM37.745 7.80933C35.6312 7.80933 33.5648 8.43614 31.8073 9.6105C30.0497 10.7849 28.6799 12.454 27.871 14.4069C27.0621 16.3598 26.8505 18.5087 27.2628 20.5818C27.6752 22.655 28.6931 24.5593 30.1877 26.054C31.6824 27.5487 33.5867 28.5666 35.6599 28.979C37.7332 29.3913 39.882 29.1797 41.8349 28.3708C43.7878 27.5619 45.4569 26.1921 46.6313 24.4345C47.8057 22.6769 48.4325 20.6106 48.4325 18.4968C48.4292 15.6633 47.3021 12.9469 45.2985 10.9433C43.2949 8.9397 40.5785 7.81263 37.745 7.80933ZM37.745 25.0702C36.4449 25.0702 35.174 24.6847 34.093 23.9623C33.0121 23.2401 32.1695 22.2135 31.672 21.0123C31.1745 19.8112 31.0443 18.4896 31.2979 17.2144C31.5516 15.9393 32.1777 14.7681 33.0969 13.8488C34.0162 12.9295 35.1875 12.3034 36.4626 12.0498C37.7377 11.7962 39.0593 11.9263 40.2605 12.4239C41.4616 12.9214 42.4882 13.7639 43.2105 14.8449C43.9328 15.9258 44.3183 17.1967 44.3183 18.4968C44.3157 20.2394 43.6222 21.9098 42.3901 23.142C41.1579 24.3742 39.4875 25.0675 37.745 25.0702ZM86.6775 7.80933C84.5633 7.80917 82.4972 8.43583 80.7396 9.61009C78.9819 10.7844 77.612 12.4535 76.8029 14.4063C75.9939 16.3592 75.7821 18.5082 76.1944 20.5813C76.6067 22.6546 77.6245 24.559 79.1192 26.0537C80.6137 27.5485 82.5181 28.5665 84.5917 28.9789C86.6642 29.3913 88.8133 29.1797 90.7667 28.3709C92.7192 27.562 94.3883 26.1922 95.5625 24.4346C96.7375 22.677 97.3642 20.6107 97.3642 18.4968C97.3608 15.6635 96.2342 12.9471 94.2308 10.9436C92.2275 8.94002 89.5108 7.81286 86.6775 7.80933ZM86.6775 25.0702C85.3775 25.0703 84.1067 24.6849 83.0253 23.9627C81.9442 23.2406 81.1016 22.214 80.6039 21.0129C80.1062 19.8118 79.976 18.4901 80.2295 17.2149C80.4831 15.9398 81.1091 14.7685 82.0283 13.8491C82.9476 12.9297 84.1192 12.3036 85.3942 12.0499C86.6692 11.7962 87.9908 11.9263 89.1917 12.4238C90.3933 12.9213 91.42 13.7638 92.1425 14.8448C92.8642 15.9258 93.25 17.1967 93.25 18.4968C93.2475 20.2392 92.5542 21.9095 91.3217 23.1417C90.09 24.3738 88.42 25.0673 86.6775 25.0702ZM62.2108 7.80933C60.097 7.80933 58.0307 8.43614 56.2732 9.6105C54.5156 10.7849 53.1457 12.454 52.3368 14.4069C51.5279 16.3598 51.3163 18.5087 51.7287 20.5818C52.1411 22.655 53.1589 24.5593 54.6536 26.054C56.1482 27.5487 58.0526 28.5666 60.1257 28.979C62.1989 29.3913 64.3478 29.1797 66.3007 28.3708C68.2537 27.5619 69.9227 26.1921 71.0972 24.4345C72.2715 22.6769 72.8983 20.6106 72.8983 18.4968C72.895 15.6633 71.7679 12.9469 69.7643 10.9433C67.7607 8.9397 65.0443 7.81263 62.2108 7.80933ZM62.2108 25.0702C60.9995 25.0707 59.8117 24.7367 58.7782 24.1047C57.7449 23.4728 56.9062 22.5677 56.3547 21.4892C55.8034 20.4107 55.5607 19.2008 55.6535 17.9932C55.7463 16.7854 56.171 15.6268 56.8807 14.6452C57.5905 13.6637 58.5577 12.8973 59.6754 12.4308C60.7932 11.9642 62.0182 11.8155 63.2152 12.0012C64.4122 12.1869 65.5345 12.6997 66.4584 13.483C67.3823 14.2663 68.0718 15.2897 68.4508 16.4402H62.2108V20.5535H68.4508C68.0167 21.8662 67.1804 23.0091 66.0603 23.8197C64.9403 24.6305 63.5935 25.0679 62.2108 25.0702Z" fill="black"/> <path d="M291.419 16.8678C291.04 17.2491 290.75 17.7093 290.569 18.2155C290.388 18.7218 290.321 19.2617 290.373 19.7968L290.355 19.7788C290.408 20.4087 290.323 21.0425 290.106 21.6362C289.889 22.2298 289.545 22.7689 289.098 23.2159C288.651 23.6628 288.112 24.0069 287.518 24.2239C286.925 24.441 286.291 24.526 285.661 24.4728L285.679 24.4908C284.926 24.4207 284.169 24.5846 283.512 24.9603C282.855 25.336 282.33 25.9051 282.009 26.5901C281.687 27.2751 281.585 28.0425 281.715 28.7879C281.846 29.5332 282.203 30.2201 282.739 30.7549C283.274 31.2897 283.961 31.6464 284.706 31.7763C285.452 31.9063 286.219 31.8031 286.904 31.481C287.589 31.1588 288.157 30.6334 288.532 29.9762C288.907 29.319 289.071 28.5622 289 27.8088L289.019 27.8268C288.966 27.197 289.051 26.5631 289.268 25.9694C289.485 25.3758 289.829 24.8367 290.276 24.3897C290.723 23.9428 291.262 23.5987 291.856 23.3817C292.449 23.1646 293.083 23.0796 293.713 23.1328L293.694 23.1148C294.309 23.1701 294.929 23.0692 295.495 22.8214C296.061 22.5736 296.555 22.1869 296.932 21.6972C297.309 21.2075 297.556 20.6305 297.651 20.0199C297.745 19.4092 297.684 18.7846 297.473 18.2038C297.261 17.6231 296.907 17.1051 296.442 16.6978C295.978 16.2905 295.418 16.0071 294.814 15.8739C294.211 15.7407 293.584 15.7619 292.991 15.9356C292.398 16.1094 291.858 16.43 291.422 16.8678H291.419Z" fill="black"/> <path d="M284.042 22.1328L284.023 22.1148C284.558 22.1687 285.099 22.103 285.606 21.9224C286.113 21.7418 286.573 21.4509 286.954 21.0706C287.334 20.6903 287.625 20.2301 287.806 19.7234C287.987 19.2167 288.053 18.6762 288 18.1408L288.019 18.1588C287.966 17.5289 288.051 16.8951 288.268 16.3014C288.485 15.7078 288.829 15.1687 289.276 14.7217C289.723 14.2748 290.262 13.9307 290.856 13.7137C291.449 13.4966 292.083 13.4117 292.713 13.4648L292.694 13.4468C293.447 13.5176 294.204 13.3542 294.862 12.9789C295.519 12.6037 296.044 12.0348 296.366 11.3499C296.688 10.6651 296.791 9.89753 296.661 9.15202C296.531 8.40651 296.174 7.71933 295.639 7.18419C295.103 6.64906 294.416 6.29202 293.671 6.1618C292.925 6.03157 292.158 6.13448 291.473 6.4565C290.788 6.77851 290.219 7.30396 289.844 7.96117C289.469 8.61837 289.305 9.37534 289.376 10.1288L289.358 10.1098C289.411 10.7397 289.326 11.3737 289.109 11.9674C288.892 12.5611 288.548 13.1003 288.101 13.5473C287.654 13.9942 287.115 14.3383 286.522 14.5553C285.928 14.7723 285.294 14.8571 284.664 14.8038L284.682 14.8228C284.147 14.7689 283.606 14.8346 283.099 15.0152C282.592 15.1957 282.132 15.4867 281.751 15.867C281.371 16.2473 281.079 16.7075 280.898 17.2142C280.718 17.7209 280.651 18.2614 280.705 18.7968L280.687 18.7788C280.74 19.4086 280.655 20.0424 280.438 20.636C280.221 21.2295 279.877 21.7686 279.43 22.2155C278.983 22.6624 278.444 23.0064 277.85 23.2236C277.257 23.4407 276.623 23.5258 275.993 23.4728L276.011 23.4908C275.257 23.42 274.501 23.5834 273.843 23.9587C273.186 24.334 272.661 24.9028 272.339 25.5877C272.017 26.2726 271.914 27.0401 272.044 27.7856C272.174 28.5311 272.531 29.2183 273.066 29.7534C273.601 30.2886 274.289 30.6456 275.034 30.7758C275.78 30.906 276.547 30.8031 277.232 30.4811C277.917 30.1591 278.486 29.6337 278.861 28.9765C279.236 28.3192 279.4 27.5623 279.329 26.8088L279.348 26.8268C279.295 26.1969 279.38 25.5631 279.597 24.9694C279.814 24.3758 280.158 23.8367 280.605 23.3897C281.052 22.9428 281.591 22.5987 282.185 22.3817C282.778 22.1646 283.412 22.0796 284.042 22.1328Z" fill="black"/> <path d="M277.34 20.1258C277.719 19.7446 278.009 19.2844 278.19 18.7781C278.371 18.2718 278.437 17.7318 278.385 17.1968L278.404 17.2148C278.351 16.5848 278.436 15.9507 278.653 15.3569C278.87 14.7631 279.214 14.2239 279.662 13.7769C280.109 13.3299 280.648 12.9859 281.242 12.7689C281.836 12.552 282.47 12.4673 283.1 12.5208L283.081 12.5028C283.834 12.5733 284.591 12.4098 285.248 12.0346C285.905 11.6594 286.43 11.0906 286.752 10.406C287.074 9.72134 287.176 8.95409 287.046 8.20886C286.916 7.46363 286.559 6.77671 286.024 6.24177C285.489 5.70683 284.802 5.34991 284.057 5.21969C283.312 5.08946 282.544 5.19228 281.86 5.5141C281.175 5.83592 280.606 6.36109 280.231 7.01799C279.856 7.67489 279.692 8.43155 279.763 9.18477L279.745 9.16677C279.798 9.79662 279.713 10.4305 279.496 11.0241C279.279 11.6178 278.935 12.1569 278.488 12.6038C278.041 13.0508 277.502 13.3948 276.908 13.6119C276.315 13.829 275.681 13.914 275.051 13.8608L275.069 13.8788C274.454 13.8236 273.834 13.9247 273.268 14.1726C272.702 14.4205 272.208 14.8073 271.831 15.2971C271.455 15.7868 271.208 16.3638 271.113 16.9744C271.019 17.5851 271.08 18.2097 271.291 18.7903C271.503 19.371 271.857 19.8889 272.322 20.2961C272.787 20.7034 273.347 20.9867 273.95 21.1199C274.553 21.253 275.181 21.2317 275.773 21.058C276.366 20.8842 276.906 20.5636 277.342 20.1258H277.34Z" fill="black"/> <path d="M308.317 10.1519H311.287V24.6049H308.317V10.1519Z" fill="black"/> <path d="M312.969 19.6559C312.965 18.6173 313.269 17.6007 313.843 16.7351C314.417 15.8695 315.235 15.1937 316.194 14.7934C317.152 14.393 318.208 14.2861 319.227 14.4862C320.246 14.6863 321.183 15.1843 321.919 15.9173C322.655 16.6502 323.156 17.5851 323.361 18.6035C323.565 19.6219 323.462 20.678 323.066 21.638C322.669 22.5979 321.997 23.4187 321.133 23.9961C320.27 24.5736 319.255 24.8819 318.216 24.8819C317.527 24.8898 316.843 24.7601 316.204 24.5005C315.565 24.2409 314.984 23.8566 314.496 23.3701C314.007 22.8835 313.621 22.3044 313.359 21.6667C313.096 21.029 312.964 20.3454 312.969 19.6559ZM320.493 19.6559C320.481 19.2082 320.337 18.7741 320.079 18.4078C319.821 18.0416 319.461 17.7594 319.044 17.5967C318.627 17.4339 318.171 17.3977 317.733 17.4927C317.295 17.5877 316.895 17.8095 316.583 18.1306C316.271 18.4516 316.06 18.8576 315.977 19.2978C315.894 19.7379 315.943 20.1927 316.117 20.6053C316.292 21.0179 316.584 21.3699 316.957 21.6174C317.33 21.8649 317.768 21.9969 318.216 21.9969C318.523 22.0051 318.828 21.9496 319.112 21.834C319.396 21.7184 319.654 21.5452 319.867 21.3253C320.081 21.1053 320.247 20.8434 320.355 20.5561C320.463 20.2688 320.51 19.9623 320.493 19.6559Z" fill="black"/> <path d="M335.3 14.7059V24.1059C335.3 27.4319 332.706 28.8379 330.073 28.8379C329.146 28.9073 328.218 28.72 327.39 28.2967C326.562 27.8733 325.867 27.2302 325.381 26.4379L327.915 24.9729C328.119 25.3859 328.445 25.7266 328.848 25.9495C329.252 26.1723 329.714 26.2667 330.172 26.2199C330.465 26.2605 330.763 26.2347 331.045 26.1444C331.327 26.0541 331.585 25.9016 331.799 25.6983C332.014 25.4949 332.18 25.2459 332.286 24.9695C332.392 24.6932 332.434 24.3967 332.409 24.1019V23.1969C332.061 23.6224 331.619 23.9605 331.117 24.184C330.614 24.4075 330.067 24.5102 329.518 24.4839C328.212 24.4427 326.973 23.8949 326.064 22.9563C325.154 22.0178 324.646 20.7622 324.646 19.4554C324.646 18.1486 325.154 16.893 326.064 15.9545C326.973 15.0159 328.212 14.4681 329.518 14.4269C330.067 14.4006 330.614 14.5033 331.117 14.7268C331.619 14.9503 332.061 15.2884 332.409 15.7139V14.7039L335.3 14.7059ZM332.41 19.4569C332.43 18.9783 332.306 18.5046 332.055 18.0969C331.803 17.6891 331.435 17.366 330.999 17.1691C330.562 16.9721 330.076 16.9104 329.604 16.9918C329.132 17.0732 328.695 17.294 328.35 17.6259C328.004 17.9577 327.766 18.3853 327.665 18.8537C327.565 19.3221 327.607 19.8099 327.786 20.2542C327.965 20.6985 328.273 21.0791 328.671 21.3469C329.068 21.6147 329.536 21.7575 330.015 21.7569C330.327 21.7787 330.64 21.7349 330.934 21.6283C331.228 21.5217 331.497 21.3546 331.723 21.138C331.948 20.9213 332.126 20.6598 332.244 20.3702C332.363 20.0807 332.419 19.7696 332.41 19.4569Z" fill="black"/> <path d="M336.982 19.6559C336.978 18.6173 337.282 17.6007 337.856 16.7351C338.43 15.8695 339.248 15.1937 340.207 14.7934C341.165 14.393 342.221 14.2861 343.24 14.4862C344.259 14.6863 345.196 15.1843 345.932 15.9173C346.668 16.6502 347.169 17.5851 347.374 18.6035C347.578 19.6219 347.475 20.678 347.079 21.638C346.682 22.5979 346.01 23.4187 345.146 23.9961C344.283 24.5736 343.268 24.8819 342.229 24.8819C341.54 24.8898 340.855 24.7601 340.217 24.5005C339.578 24.2409 338.997 23.8566 338.509 23.3701C338.02 22.8835 337.634 22.3044 337.372 21.6667C337.109 21.029 336.977 20.3454 336.982 19.6559ZM344.506 19.6559C344.494 19.2082 344.35 18.7741 344.092 18.4078C343.834 18.0416 343.474 17.7594 343.057 17.5967C342.64 17.4339 342.184 17.3977 341.746 17.4927C341.308 17.5877 340.908 17.8095 340.596 18.1306C340.284 18.4516 340.073 18.8576 339.99 19.2978C339.907 19.7379 339.956 20.1927 340.13 20.6053C340.305 21.0179 340.597 21.3699 340.97 21.6174C341.343 21.8649 341.781 21.9969 342.229 21.9969C342.536 22.0051 342.841 21.9496 343.125 21.834C343.409 21.7184 343.667 21.5452 343.88 21.3253C344.094 21.1053 344.26 20.8434 344.368 20.5561C344.476 20.2688 344.523 19.9623 344.506 19.6559Z" fill="black"/> <path d="M348.861 12.0528C348.861 11.7003 348.966 11.3558 349.161 11.0627C349.357 10.7697 349.636 10.5413 349.961 10.4064C350.287 10.2715 350.645 10.2362 350.991 10.305C351.336 10.3738 351.654 10.5435 351.903 10.7927C352.152 11.0419 352.322 11.3594 352.391 11.7051C352.46 12.0508 352.424 12.4091 352.289 12.7347C352.155 13.0603 351.926 13.3386 351.633 13.5345C351.34 13.7303 350.996 13.8348 350.643 13.8348C350.172 13.8301 349.721 13.6409 349.388 13.3076C349.055 12.9745 348.866 12.5239 348.861 12.0528ZM349.161 14.7058H352.132V24.6058H349.157L349.161 14.7058Z" fill="black"/> <path d="M364.956 19.6559C364.99 20.3102 364.895 20.9648 364.675 21.5821C364.456 22.1994 364.116 22.7672 363.677 23.2529C363.237 23.7385 362.705 24.1325 362.113 24.4121C361.52 24.6916 360.878 24.8513 360.224 24.8819C359.674 24.9119 359.123 24.8191 358.613 24.6102C358.103 24.4012 357.646 24.0814 357.275 23.6739V28.5649H354.305V14.7059H357.275V15.6359C357.646 15.2287 358.104 14.9091 358.614 14.7004C359.124 14.4916 359.674 14.3989 360.224 14.4289C360.879 14.4594 361.521 14.619 362.113 14.8986C362.706 15.1782 363.238 15.5722 363.677 16.058C364.117 16.5438 364.457 17.1118 364.676 17.7293C364.895 18.3467 364.991 19.0015 364.956 19.6559ZM361.986 19.6559C361.974 19.1926 361.826 18.743 361.56 18.3633C361.295 17.9837 360.923 17.6909 360.491 17.5217C360.06 17.3524 359.588 17.3141 359.135 17.4117C358.682 17.5092 358.268 17.7382 357.944 18.07C357.62 18.4019 357.402 18.8217 357.316 19.2772C357.23 19.7326 357.28 20.2032 357.46 20.6303C357.64 21.0574 357.942 21.4218 358.328 21.6781C358.714 21.9343 359.167 22.071 359.631 22.0709C359.949 22.0851 360.267 22.0318 360.563 21.9146C360.859 21.7975 361.127 21.619 361.349 21.391C361.572 21.1629 361.743 20.8905 361.853 20.5915C361.963 20.2925 362.008 19.9736 361.986 19.6559Z" fill="black"/> <path d="M374.121 21.6349C374.121 23.9119 372.142 24.8819 370.004 24.8819C369.14 24.9601 368.273 24.7775 367.514 24.3574C366.755 23.9374 366.14 23.2994 365.747 22.5259L368.32 21.0609C368.424 21.4184 368.648 21.7295 368.953 21.942C369.259 22.1546 369.629 22.2559 370 22.2289C370.712 22.2289 371.069 22.0109 371.069 21.6159C371.069 20.5259 366.198 21.1009 366.198 17.6759C366.198 15.5169 368.02 14.4289 370.079 14.4289C370.853 14.4044 371.619 14.588 372.298 14.9605C372.977 15.3331 373.544 15.8809 373.939 16.5469L371.405 17.9129C371.294 17.6536 371.109 17.4327 370.873 17.2778C370.637 17.1229 370.361 17.0409 370.079 17.0419C369.564 17.0419 369.247 17.2419 369.247 17.5959C369.251 18.7249 374.121 17.9719 374.121 21.6349Z" fill="black"/> <path d="M384.97 14.7058V24.6058H382V23.6748C381.657 24.0856 381.222 24.4093 380.73 24.6193C380.238 24.8293 379.704 24.9196 379.17 24.8828C377.17 24.8828 375.47 23.4578 375.47 20.7828V14.7058H378.44V20.3478C378.415 20.5836 378.442 20.822 378.519 21.0463C378.595 21.2707 378.72 21.4757 378.884 21.647C379.048 21.8183 379.247 21.9518 379.468 22.0383C379.688 22.1248 379.925 22.1622 380.162 22.1478C381.251 22.1478 382.003 21.5148 382.003 20.1088V14.7088L384.97 14.7058Z" fill="black"/> <path d="M402 18.5268V24.6048H399.03V18.7838C399.03 17.7938 398.555 17.1608 397.605 17.1608C396.615 17.1608 396.06 17.8538 396.06 19.0218V24.6048H393.091V18.7838C393.091 17.7938 392.616 17.1608 391.665 17.1608C390.675 17.1608 390.121 17.8538 390.121 19.0218V24.6048H387.151V14.7048H390.121V15.6148C390.429 15.2111 390.833 14.8909 391.296 14.6836C391.76 14.4762 392.268 14.3883 392.774 14.4278C393.282 14.4029 393.788 14.5102 394.243 14.7391C394.697 14.9679 395.084 15.3107 395.367 15.7338C395.696 15.2911 396.132 14.9391 396.634 14.7107C397.136 14.4823 397.688 14.385 398.238 14.4278C400.511 14.4288 402 16.0518 402 18.5268Z" fill="black"/> <path d="M404.512 14.6448C405.729 14.6448 406.716 13.658 406.716 12.4408C406.716 11.2236 405.729 10.2368 404.512 10.2368C403.295 10.2368 402.308 11.2236 402.308 12.4408C402.308 13.658 403.295 14.6448 404.512 14.6448Z" fill="black"/> <g clip-path="url(#clip0_96_373)"> <path d="M628.052 2.09057C628.052 2.69464 628.542 3.18432 629.146 3.18432H630.24C630.844 3.18432 631.333 2.69464 631.333 2.09057C631.333 1.48652 630.844 0.996826 630.24 0.996826H629.146C628.542 0.996826 628.052 1.48652 628.052 2.09057Z" fill="black"/> <path d="M596.333 35.9968H601.647L600.1 34.45C599.689 34.0398 599.133 33.8093 598.553 33.8093H596.333C587.876 33.8093 581.021 26.9537 581.021 18.4968C581.021 10.04 587.876 3.18433 596.333 3.18433H613.833C622.29 3.18433 629.146 10.04 629.146 18.4968C629.146 26.9537 622.29 33.8093 613.833 33.8093H607.287C606.417 33.8093 605.582 33.4636 604.967 32.8483L603.154 31.0361C602.129 30.0105 600.738 29.4343 599.287 29.4343H596.333C590.293 29.4343 585.396 24.5375 585.396 18.4968C585.396 12.4562 590.293 7.55933 596.333 7.55933H613.833C619.874 7.55933 624.771 12.4562 624.771 18.4968C624.771 24.5375 619.874 29.4343 613.833 29.4343H609.63C608.76 29.4343 607.925 29.0886 607.31 28.4733L605.497 26.6611C604.472 25.6355 603.081 25.0593 601.63 25.0593H596.333C592.709 25.0593 589.771 22.1212 589.771 18.4968C589.771 14.8725 592.709 11.9343 596.333 11.9343H613.833C617.458 11.9343 620.396 14.8725 620.396 18.4968C620.396 22.077 617.529 24.9876 613.966 25.058L613.965 25.0593H612.364C611.494 25.0593 610.659 24.7136 610.044 24.0983L608.232 22.2861C607.39 21.4445 606.303 20.9056 605.138 20.7393L605.083 20.6843H596.333C595.125 20.6843 594.146 19.7049 594.146 18.4968C594.146 17.2887 595.125 16.3093 596.333 16.3093H613.833C615.041 16.3093 616.021 17.2887 616.021 18.4968C616.021 19.7049 615.041 20.6843 613.833 20.6843H609.458L611.005 22.2312C611.415 22.6413 611.972 22.8718 612.552 22.8718H613.833C616.249 22.8718 618.208 20.9131 618.208 18.4968C618.208 16.0806 616.249 14.1218 613.833 14.1218H596.333C593.917 14.1218 591.958 16.0806 591.958 18.4968C591.958 20.9131 593.917 22.8718 596.333 22.8718H604.365C605.235 22.8718 606.07 23.2175 606.685 23.8328L608.497 25.6451C609.523 26.6706 610.914 27.2468 612.364 27.2468H614.38V27.23C618.958 26.9478 622.583 23.1456 622.583 18.4968C622.583 13.6644 618.666 9.74683 613.833 9.74683H596.333C591.501 9.74683 587.583 13.6644 587.583 18.4968C587.583 23.3294 591.501 27.2468 596.333 27.2468H601.63C602.501 27.2468 603.335 27.5925 603.951 28.2078L605.763 30.0201C606.788 31.0456 608.179 31.6218 609.63 31.6218H613.833C621.082 31.6218 626.958 25.7456 626.958 18.4968C626.958 11.2481 621.082 5.37183 613.833 5.37183H596.333C589.084 5.37183 583.208 11.2481 583.208 18.4968C583.208 25.7456 589.084 31.6218 596.333 31.6218H599.287C600.158 31.6218 600.992 31.9675 601.608 32.5828L603.42 34.3951C604.445 35.4206 605.836 35.9968 607.287 35.9968H613.833C623.498 35.9968 631.333 28.1618 631.333 18.4968C631.333 8.83184 623.498 0.996825 613.833 0.996826L596.333 0.99683C586.668 0.996831 578.833 8.83185 578.833 18.4968C578.833 28.1618 586.668 35.9968 596.333 35.9968Z" fill="black"/> </g> <g clip-path="url(#clip1_96_373)"> <path d="M819.681 3.49683C816.635 3.49683 813.714 4.70688 811.56 6.86079L804.531 13.8902C802.377 16.0441 801.167 18.9654 801.167 22.0115C801.167 28.3547 806.309 33.4968 812.652 33.4968C815.698 33.4968 818.619 32.2867 820.773 30.1328L825.636 25.2705C825.636 25.2704 825.636 25.2706 825.636 25.2705L839.803 11.1034C840.831 10.0747 842.227 9.49683 843.681 9.49683C846.117 9.49683 848.182 11.0842 848.898 13.2809L853.369 8.80979C851.329 5.61517 847.753 3.49683 843.681 3.49683C840.635 3.49683 837.714 4.70688 835.56 6.86079L816.531 25.8902C815.502 26.9189 814.107 27.4968 812.652 27.4968C809.622 27.4968 807.167 25.041 807.167 22.0115C807.167 20.5567 807.745 19.1615 808.773 18.1328L815.803 11.1034C816.831 10.0747 818.227 9.49683 819.681 9.49683C822.117 9.49683 824.182 11.0843 824.898 13.281L829.369 8.8099C827.329 5.61523 823.753 3.49683 819.681 3.49683Z" fill="black"/> <path d="M840.531 25.8902C839.502 26.9189 838.107 27.4968 836.652 27.4968C834.217 27.4968 832.152 25.9098 831.436 23.7135L826.965 28.1845C829.005 31.3787 832.581 33.4968 836.652 33.4968C839.698 33.4968 842.619 32.2867 844.773 30.1328L863.803 11.1034C864.831 10.0747 866.227 9.49683 867.681 9.49683C870.711 9.49683 873.167 11.9527 873.167 14.9821C873.167 16.4369 872.589 17.8321 871.56 18.8608L864.531 25.8902C863.502 26.9189 862.107 27.4968 860.652 27.4968C858.216 27.4968 856.152 25.9095 855.436 23.713L850.965 28.1841C853.004 31.3786 856.581 33.4968 860.652 33.4968C863.698 33.4968 866.619 32.2867 868.773 30.1328L875.803 23.1034C877.957 20.9495 879.167 18.0282 879.167 14.9821C879.167 8.63897 874.025 3.49683 867.681 3.49683C864.635 3.49683 861.714 4.70688 859.56 6.86079L840.531 25.8902Z" fill="black"/> </g> <path d="M1079.52 13.2468C1079.88 13.2468 1080 13.3768 1080 13.7268V21.6468H1084.07C1084.42 21.6468 1084.55 21.7768 1084.55 22.1268V22.8268C1084.55 23.1768 1084.42 23.3068 1084.07 23.3068H1078.71C1078.36 23.3068 1078.22 23.1768 1078.22 22.8268V13.7268C1078.22 13.3768 1078.36 13.2468 1078.71 13.2468H1079.52Z" fill="black"/> <path d="M1088.1 16.7369C1088.1 14.4269 1089.56 13.0369 1092.1 13.0369C1094.64 13.0369 1096.1 14.4269 1096.1 16.7369V19.8169C1096.1 22.1269 1094.63 23.5169 1092.1 23.5169C1089.57 23.5169 1088.1 22.1269 1088.1 19.8169V16.7369ZM1094.42 16.7369C1094.42 15.4369 1093.61 14.7369 1092.15 14.7369C1090.69 14.7369 1089.89 15.4469 1089.89 16.7369V19.8369C1089.89 21.1469 1090.69 21.8369 1092.15 21.8369C1093.61 21.8369 1094.42 21.1169 1094.42 19.8369V16.7369Z" fill="black"/> <path d="M1108.01 17.7968C1108.4 17.7968 1108.49 17.9268 1108.49 18.2768V20.1768C1108.5 20.6243 1108.41 21.0686 1108.23 21.4769C1108.04 21.8853 1107.77 22.2474 1107.43 22.5368C1106.58 23.2123 1105.51 23.5474 1104.43 23.4768C1101.84 23.4768 1100.43 22.0868 1100.43 19.7768V16.6768C1100.43 14.3968 1101.89 12.9968 1104.43 12.9968C1106.43 12.9968 1107.73 13.7868 1108.28 15.3668C1108.31 15.4262 1108.33 15.4919 1108.33 15.5587C1108.33 15.6256 1108.31 15.6918 1108.29 15.7519C1108.26 15.8121 1108.21 15.8647 1108.16 15.9055C1108.11 15.9462 1108.05 15.9741 1107.98 15.9868L1107.2 16.2568C1106.86 16.3768 1106.72 16.3068 1106.6 15.9568C1106.43 15.5297 1106.13 15.1699 1105.74 14.9345C1105.35 14.6991 1104.88 14.6013 1104.43 14.6568C1102.96 14.6568 1102.16 15.3668 1102.16 16.6568V19.8368C1102.16 21.1468 1102.97 21.8368 1104.43 21.8368C1105.89 21.8368 1106.79 21.1668 1106.79 20.1868V19.4468H1104.62C1104.26 19.4468 1104.13 19.3068 1104.13 18.9568V18.2768C1104.13 17.9268 1104.26 17.7968 1104.62 17.7968H1108.01Z" fill="black"/> <path d="M1112.62 16.7369C1112.62 14.4269 1114.08 13.0369 1116.62 13.0369C1119.16 13.0369 1120.62 14.4269 1120.62 16.7369V19.8169C1120.62 22.1269 1119.15 23.5169 1116.62 23.5169C1114.09 23.5169 1112.62 22.1269 1112.62 19.8169V16.7369ZM1118.93 16.7369C1118.93 15.4369 1118.12 14.7369 1116.67 14.7369C1115.22 14.7369 1114.4 15.4469 1114.4 16.7369V19.8369C1114.4 21.1469 1115.21 21.8369 1116.67 21.8369C1118.13 21.8369 1118.93 21.1169 1118.93 19.8369V16.7369Z" fill="black"/> <path d="M1125.33 13.5368C1125.33 13.3168 1125.4 13.2468 1125.62 13.2468H1126.08C1126.3 13.2468 1126.35 13.3168 1126.35 13.5368V23.0168C1126.35 23.2368 1126.35 23.3068 1126.08 23.3068H1125.62C1125.4 23.3068 1125.33 23.2368 1125.33 23.0168V13.5368Z" fill="black"/> <path d="M1135.46 13.2468C1136.29 13.2468 1137.09 13.5776 1137.68 14.1665C1138.27 14.7553 1138.6 15.554 1138.6 16.3868C1138.6 17.2196 1138.27 18.0183 1137.68 18.6071C1137.09 19.196 1136.29 19.5268 1135.46 19.5268H1132.46V23.0168C1132.46 23.2368 1132.41 23.3068 1132.2 23.3068H1131.73C1131.52 23.3068 1131.44 23.2368 1131.44 23.0168V13.5368C1131.44 13.3168 1131.52 13.2468 1131.73 13.2468H1135.46ZM1135.37 18.5368C1135.66 18.5368 1135.94 18.4804 1136.2 18.3709C1136.47 18.2613 1136.71 18.1007 1136.91 17.8983C1137.11 17.6959 1137.27 17.4555 1137.38 17.1911C1137.49 16.9266 1137.55 16.6431 1137.55 16.3568C1137.55 16.0705 1137.49 15.787 1137.38 15.5225C1137.27 15.2581 1137.11 15.0177 1136.91 14.8153C1136.71 14.6129 1136.47 14.4523 1136.2 14.3427C1135.94 14.2332 1135.66 14.1768 1135.37 14.1768H1132.37V18.5368H1135.37Z" fill="black"/> <path d="M1146.41 13.0469C1147.18 12.9617 1147.96 13.1278 1148.63 13.5205C1149.3 13.9133 1149.83 14.5117 1150.13 15.2269C1150.21 15.3869 1150.13 15.5169 1149.97 15.5969L1149.53 15.7969C1149.35 15.8669 1149.28 15.8569 1149.17 15.6669C1148.94 15.1361 1148.55 14.6911 1148.06 14.3963C1147.56 14.1015 1146.98 13.9721 1146.41 14.0269C1144.72 14.0269 1143.8 14.6969 1143.8 15.8969C1143.79 16.2636 1143.91 16.6216 1144.15 16.9046C1144.38 17.1876 1144.71 17.3767 1145.07 17.4369C1145.61 17.6123 1146.17 17.7198 1146.73 17.7569C1147.41 17.7933 1148.09 17.9315 1148.73 18.1669C1149.22 18.3228 1149.65 18.6434 1149.93 19.075C1150.21 19.5066 1150.34 20.0228 1150.29 20.5369C1150.29 22.4069 1148.93 23.5369 1146.43 23.5369C1145.61 23.6307 1144.78 23.4407 1144.09 22.9985C1143.39 22.5564 1142.86 21.8887 1142.6 21.1069C1142.58 21.0713 1142.57 21.0322 1142.57 20.9924C1142.57 20.9526 1142.58 20.9132 1142.6 20.8769C1142.61 20.8406 1142.64 20.8083 1142.67 20.7824C1142.7 20.7564 1142.73 20.7375 1142.77 20.7269L1143.21 20.5669C1143.24 20.5527 1143.28 20.5459 1143.32 20.5469C1143.36 20.5479 1143.39 20.5567 1143.43 20.5727C1143.46 20.5887 1143.49 20.6115 1143.52 20.6398C1143.54 20.6681 1143.56 20.7011 1143.57 20.7369C1143.79 21.3018 1144.19 21.7808 1144.71 22.1045C1145.22 22.4281 1145.82 22.5796 1146.43 22.5369C1148.32 22.5369 1149.25 21.8769 1149.25 20.5369C1149.27 20.1847 1149.16 19.8376 1148.95 19.5574C1148.73 19.2773 1148.42 19.0822 1148.08 19.0069C1147.56 18.8526 1147.03 18.7586 1146.49 18.7269L1145.41 18.5869C1145.07 18.5152 1144.74 18.425 1144.41 18.3169C1144.09 18.219 1143.78 18.0594 1143.52 17.8469C1143.25 17.6067 1143.05 17.3111 1142.91 16.981C1142.77 16.6509 1142.71 16.2945 1142.72 15.9369C1142.79 14.1869 1144.1 13.0469 1146.41 13.0469Z" fill="black"/> <path d="M1155.68 19.8868C1155.72 20.594 1156.03 21.2583 1156.55 21.744C1157.07 22.2297 1157.75 22.5001 1158.46 22.5001C1159.16 22.5001 1159.85 22.2297 1160.36 21.744C1160.88 21.2583 1161.19 20.594 1161.23 19.8868V13.5368C1161.23 13.3168 1161.3 13.2468 1161.52 13.2468H1161.98C1162.2 13.2468 1162.27 13.3168 1162.27 13.5368V19.8768C1162.27 22.1468 1160.93 23.5168 1158.46 23.5168C1155.99 23.5168 1154.65 22.1468 1154.65 19.8768V13.5368C1154.65 13.3168 1154.72 13.2468 1154.93 13.2468H1155.4C1155.61 13.2468 1155.68 13.3168 1155.68 13.5368V19.8868Z" fill="black"/> <path d="M1176.07 13.2468C1176.29 13.2468 1176.36 13.3168 1176.36 13.5368V23.0168C1176.36 23.2368 1176.29 23.3068 1176.07 23.3068H1175.65C1175.44 23.3068 1175.37 23.2368 1175.37 23.0168V17.2468C1175.37 16.4073 1175.43 15.5687 1175.54 14.7368H1175.48C1175.17 15.4975 1174.8 16.2359 1174.39 16.9468L1172.24 20.7368C1172.21 20.8026 1172.17 20.8588 1172.11 20.8981C1172.05 20.9373 1171.98 20.9578 1171.91 20.9568H1171.63C1171.56 20.9572 1171.49 20.9365 1171.43 20.8975C1171.37 20.8584 1171.32 20.8026 1171.29 20.7368L1169.11 16.9068C1168.72 16.2061 1168.39 15.4774 1168.11 14.7268H1168.05C1168.15 15.5663 1168.21 16.4111 1168.21 17.2568V23.0168C1168.21 23.2368 1168.14 23.3068 1167.92 23.3068H1167.53C1167.31 23.3068 1167.24 23.2368 1167.24 23.0168V13.5368C1167.24 13.3168 1167.31 13.2468 1167.53 13.2468H1167.89C1167.97 13.2392 1168.05 13.2571 1168.13 13.2983C1168.2 13.3395 1168.25 13.4019 1168.29 13.4768L1171.79 19.6968L1175.27 13.5368C1175.38 13.3268 1175.44 13.2968 1175.66 13.2968L1176.07 13.2468Z" fill="black"/> <path d="M1061.73 21.7868V29.0168C1061.73 29.294 1061.62 29.5598 1061.42 29.7557C1061.23 29.9517 1060.96 30.0618 1060.69 30.0618C1060.41 30.0618 1060.14 29.9517 1059.95 29.7557C1059.75 29.5598 1059.64 29.294 1059.64 29.0168V21.7968C1059.93 22.0093 1060.28 22.1279 1060.64 22.1368C1061.03 22.148 1061.42 22.0245 1061.73 21.7868ZM1070.63 19.6968C1070.36 19.6968 1070.11 19.8022 1069.92 19.9897C1069.74 20.1772 1069.63 20.4316 1069.63 20.6968V21.9568C1069.63 22.234 1069.74 22.4998 1069.94 22.6957C1070.13 22.8917 1070.4 23.0018 1070.67 23.0018C1070.95 23.0018 1071.22 22.8917 1071.41 22.6957C1071.61 22.4998 1071.72 22.234 1071.72 21.9568V20.7468C1071.73 20.6034 1071.7 20.46 1071.65 20.3264C1071.6 20.1928 1071.52 20.072 1071.42 19.9724C1071.31 19.8728 1071.19 19.7966 1071.05 19.749C1070.92 19.7015 1070.77 19.6837 1070.63 19.6968ZM1057.37 24.5268C1057.01 24.516 1056.66 24.3976 1056.37 24.1868V31.4368C1056.37 31.7153 1056.48 31.9824 1056.68 32.1793C1056.87 32.3762 1057.14 32.4868 1057.42 32.4868C1057.7 32.4868 1057.97 32.3762 1058.16 32.1793C1058.36 31.9824 1058.47 31.7153 1058.47 31.4368V24.2368C1058.14 24.4479 1057.76 24.5495 1057.37 24.5268ZM1067.37 17.5268C1067.23 17.52 1067.1 17.5409 1066.97 17.5881C1066.84 17.6353 1066.73 17.7079 1066.63 17.8014C1066.53 17.895 1066.45 18.0075 1066.4 18.1322C1066.35 18.2569 1066.32 18.3912 1066.32 18.5268V24.0968C1066.32 24.3753 1066.43 24.6424 1066.63 24.8393C1066.82 25.0362 1067.09 25.1468 1067.37 25.1468C1067.65 25.1468 1067.92 25.0362 1068.11 24.8393C1068.31 24.6424 1068.42 24.3753 1068.42 24.0968V18.5968C1068.43 18.4525 1068.4 18.3082 1068.35 18.1738C1068.3 18.0394 1068.22 17.9181 1068.11 17.8183C1068.01 17.7185 1067.88 17.6425 1067.75 17.5957C1067.61 17.5488 1067.46 17.5321 1067.32 17.5468L1067.37 17.5268ZM1064.05 19.6668C1063.67 19.6642 1063.31 19.5455 1063 19.3268V26.5968C1063 26.8753 1063.11 27.1424 1063.31 27.3393C1063.5 27.5362 1063.77 27.6468 1064.05 27.6468C1064.33 27.6468 1064.6 27.5362 1064.79 27.3393C1064.99 27.1424 1065.1 26.8753 1065.1 26.5968V19.3368C1064.78 19.5731 1064.4 19.6963 1064 19.6868L1064.05 19.6668ZM1055.1 25.2368V4.92683C1055.1 4.67926 1055 4.44274 1054.82 4.26861C1054.65 4.09448 1054.41 3.99682 1054.16 3.99683H1053.94C1053.69 3.99682 1053.45 4.09448 1053.28 4.26861C1053.1 4.44274 1053 4.67926 1053 4.92683V25.2368C1053 25.4861 1053.1 25.7252 1053.28 25.9015C1053.45 26.0778 1053.69 26.1768 1053.94 26.1768H1054.16C1054.41 26.1768 1054.65 26.0778 1054.82 25.9015C1055 25.7252 1055.1 25.4861 1055.1 25.2368ZM1057.48 23.7568H1057.26C1057.01 23.7568 1056.77 23.6578 1056.6 23.4815C1056.42 23.3052 1056.32 23.0661 1056.32 22.8168V7.34683C1056.32 7.09927 1056.42 6.86273 1056.6 6.68861C1056.77 6.51448 1057.01 6.41682 1057.26 6.41683H1057.48C1057.73 6.41682 1057.97 6.51448 1058.14 6.68861C1058.32 6.86273 1058.42 7.09927 1058.42 7.34683V22.8368C1058.42 23.0861 1058.32 23.3252 1058.14 23.5015C1057.97 23.6778 1057.73 23.7768 1057.48 23.7768V23.7568ZM1060.79 21.3768H1060.56C1060.31 21.3768 1060.08 21.2788 1059.9 21.1044C1059.73 20.93 1059.63 20.6935 1059.63 20.4468V9.74683C1059.63 9.62386 1059.65 9.50185 1059.7 9.38786C1059.74 9.27387 1059.81 9.17017 1059.9 9.08275C1059.99 8.99533 1060.09 8.92593 1060.2 8.87857C1060.32 8.83121 1060.44 8.80682 1060.56 8.80683H1060.79C1061.04 8.80947 1061.27 8.90966 1061.45 9.08566C1061.62 9.26166 1061.72 9.49925 1061.72 9.74683V20.4468C1061.72 20.6935 1061.62 20.93 1061.45 21.1044C1061.27 21.2788 1061.04 21.3768 1060.79 21.3768ZM1064.1 18.9268H1063.89C1063.64 18.9268 1063.4 18.8292 1063.23 18.655C1063.05 18.4809 1062.95 18.2444 1062.95 17.9968V12.2368C1062.94 12.1084 1062.96 11.9797 1063 11.8586C1063.05 11.7376 1063.12 11.6267 1063.2 11.533C1063.29 11.4392 1063.4 11.3646 1063.52 11.3136C1063.63 11.2627 1063.76 11.2365 1063.89 11.2368H1064.11C1064.36 11.2368 1064.6 11.3358 1064.77 11.5121C1064.95 11.6884 1065.05 11.9275 1065.05 12.1768V17.9768C1065.05 18.1011 1065.03 18.2244 1064.98 18.3396C1064.93 18.4548 1064.87 18.5596 1064.78 18.648C1064.69 18.7363 1064.59 18.8064 1064.47 18.8543C1064.36 18.9022 1064.23 18.9268 1064.11 18.9268H1064.1ZM1067.42 16.7768H1067.2C1066.95 16.7768 1066.71 16.6778 1066.54 16.5015C1066.36 16.3252 1066.26 16.0861 1066.26 15.8368V14.3468C1066.26 14.0992 1066.36 13.8627 1066.54 13.6886C1066.71 13.5144 1066.95 13.4168 1067.2 13.4168H1067.42C1067.67 13.4168 1067.91 13.5144 1068.08 13.6886C1068.26 13.8627 1068.36 14.0992 1068.36 14.3468V15.8368C1068.36 16.0844 1068.26 16.322 1068.09 16.498C1067.91 16.674 1067.68 16.7742 1067.43 16.7768H1067.42Z" fill="black"/> <defs> <clipPath id="clip0_96_373"> <rect width="52.5" height="35" fill="white" transform="translate(578.833 0.996826)"/> </clipPath> <clipPath id="clip1_96_373"> <rect width="78" height="30" fill="white" transform="translate(801.167 3.49683)"/> </clipPath> </defs> </svg>