<svg width="100" height="26" viewBox="0 0 100 26" fill="none" xmlns="http://www.w3.org/2000/svg"> <path d="M2.45081 24.1843H23.8258V2.80933H2.45081V24.1843ZM19.7117 11.4402H15.195V6.92349H19.7117V11.4402ZM6.56414 6.92349H11.0833V15.5535H19.7117V20.0702H6.56414V6.92349ZM37.745 2.80933C35.6312 2.80933 33.5648 3.43614 31.8073 4.6105C30.0497 5.78486 28.6799 7.45402 27.871 9.40691C27.0621 11.3598 26.8505 13.5087 27.2628 15.5818C27.6752 17.655 28.6931 19.5593 30.1877 21.054C31.6824 22.5487 33.5867 23.5666 35.6599 23.979C37.7332 24.3913 39.882 24.1797 41.8349 23.3708C43.7878 22.5619 45.4569 21.1921 46.6313 19.4345C47.8057 17.6769 48.4325 15.6106 48.4325 13.4968C48.4292 10.6633 47.3021 7.94686 45.2985 5.94328C43.2949 3.9397 40.5785 2.81263 37.745 2.80933ZM37.745 20.0702C36.4449 20.0702 35.174 19.6847 34.093 18.9623C33.0121 18.2401 32.1695 17.2135 31.672 16.0123C31.1745 14.8112 31.0443 13.4896 31.2979 12.2144C31.5516 10.9393 32.1777 9.76808 33.0969 8.84878C34.0162 7.92948 35.1875 7.30343 36.4626 7.0498C37.7377 6.79617 39.0593 6.92634 40.2605 7.42386C41.4616 7.92138 42.4882 8.7639 43.2105 9.84491C43.9328 10.9258 44.3183 12.1967 44.3183 13.4968C44.3157 15.2394 43.6222 16.9098 42.3901 18.142C41.1579 19.3742 39.4875 20.0675 37.745 20.0702ZM86.6775 2.80933C84.5633 2.80917 82.4972 3.43583 80.7396 4.61009C78.9819 5.78435 77.612 7.45345 76.8029 9.40633C75.9939 11.3592 75.7821 13.5082 76.1944 15.5813C76.6067 17.6546 77.6245 19.559 79.1192 21.0537C80.6137 22.5485 82.5181 23.5665 84.5917 23.9789C86.6642 24.3913 88.8133 24.1797 90.7667 23.3709C92.7192 22.562 94.3883 21.1922 95.5625 19.4346C96.7375 17.677 97.3642 15.6107 97.3642 13.4968C97.3608 10.6635 96.2342 7.94713 94.2308 5.94358C92.2275 3.94002 89.5108 2.81286 86.6775 2.80933ZM86.6775 20.0702C85.3775 20.0703 84.1067 19.6849 83.0253 18.9627C81.9442 18.2406 81.1016 17.214 80.6039 16.0129C80.1062 14.8118 79.976 13.4901 80.2295 12.2149C80.4831 10.9398 81.1091 9.76849 82.0283 8.84908C82.9476 7.92969 84.1192 7.30356 85.3942 7.04986C86.6692 6.79616 87.9908 6.92628 89.1917 7.42378C90.3933 7.92128 91.42 8.76379 92.1425 9.84483C92.8642 10.9258 93.25 12.1967 93.25 13.4968C93.2475 15.2392 92.5542 16.9095 91.3217 18.1417C90.09 19.3738 88.42 20.0673 86.6775 20.0702ZM62.2108 2.80933C60.097 2.80933 58.0307 3.43614 56.2732 4.6105C54.5156 5.78486 53.1457 7.45402 52.3368 9.40691C51.5279 11.3598 51.3163 13.5087 51.7287 15.5818C52.1411 17.655 53.1589 19.5593 54.6536 21.054C56.1482 22.5487 58.0526 23.5666 60.1257 23.979C62.1989 24.3913 64.3478 24.1797 66.3007 23.3708C68.2537 22.5619 69.9227 21.1921 71.0972 19.4345C72.2715 17.6769 72.8983 15.6106 72.8983 13.4968C72.895 10.6633 71.7679 7.94686 69.7643 5.94328C67.7607 3.9397 65.0443 2.81263 62.2108 2.80933ZM62.2108 20.0702C60.9995 20.0707 59.8117 19.7367 58.7782 19.1047C57.7449 18.4728 56.9062 17.5677 56.3547 16.4892C55.8034 15.4107 55.5607 14.2008 55.6535 12.9932C55.7463 11.7854 56.171 10.6268 56.8807 9.64524C57.5905 8.66371 58.5577 7.89733 59.6754 7.43075C60.7932 6.96416 62.0182 6.81551 63.2152 7.00119C64.4122 7.18688 65.5345 7.69968 66.4584 8.48301C67.3823 9.26633 68.0718 10.2897 68.4508 11.4402H62.2108V15.5535H68.4508C68.0167 16.8662 67.1804 18.0091 66.0603 18.8197C64.9403 19.6305 63.5935 20.0679 62.2108 20.0702Z" fill="black"/> </svg>